# xmcd CD database file
#
# Track frame offsets:
#	150
#	27011
#	55294
#
# Disc length: 1094 seconds
#
# Revision: 0
# Processed by: cddbd v1.5.1PL2 Copyright (c) Steve Scherf et al.
# Submitted via: CDex 1.51
#
DISCID=1c044403
DTITLE=東真紀 - すみれ
DYEAR=2004
DGENRE=JPop
TTITLE0=すみれ
TTITLE1=雷鳴 -HΛL's MIX 2004-
TTITLE2=すみれ（カラオケ）
EXTD=YEAR: 2004
EXTT0=
EXTT1=
EXTT2=
PLAYORDER=
